<svg width="102" height="102" viewBox="0 0 102 102" fill="none" xmlns="http://www.w3.org/2000/svg">
<g filter="url(#filter0_d_227_2585)">
<rect x="15" y="5" width="72" height="72" rx="5" fill="#2DDE7E"/>
</g>
<path d="M38.625 60.2083C41.1548 55.8306 45.8845 52.8828 51.3181 52.8828C56.7297 52.8828 61.4594 55.8306 63.9892 60.2083" stroke="white" stroke-width="4" stroke-miterlimit="10"/>
<path d="M51.294 46.5958C54.5501 46.5958 57.1896 43.9563 57.1896 40.7003C57.1896 37.4442 54.5501 34.8047 51.294 34.8047C48.038 34.8047 45.3984 37.4442 45.3984 40.7003C45.3984 43.9563 48.038 46.5958 51.294 46.5958Z" stroke="white" stroke-width="4" stroke-miterlimit="10"/>
<path d="M25.3984 41.6668C27.2023 38.543 30.5901 36.4531 34.4398 36.4531C36.0017 36.4531 37.4976 36.8051 38.8395 37.4211" stroke="white" stroke-width="4" stroke-miterlimit="10"/>
<path d="M32.6822 30.2159C35.0027 30.2159 36.8839 28.3347 36.8839 26.0142C36.8839 23.6937 35.0027 21.8125 32.6822 21.8125C30.3616 21.8125 28.4805 23.6937 28.4805 26.0142C28.4805 28.3347 30.3616 30.2159 32.6822 30.2159Z" stroke="white" stroke-width="4" stroke-miterlimit="10"/>
<path d="M77.191 41.6668C75.3872 38.543 71.9994 36.4531 68.1497 36.4531C66.5878 36.4531 65.0919 36.8051 63.75 37.4211" stroke="white" stroke-width="4" stroke-miterlimit="10"/>
<path d="M69.9302 30.2159C72.2507 30.2159 74.1319 28.3347 74.1319 26.0142C74.1319 23.6937 72.2507 21.8125 69.9302 21.8125C67.6097 21.8125 65.7285 23.6937 65.7285 26.0142C65.7285 28.3347 67.6097 30.2159 69.9302 30.2159Z" stroke="white" stroke-width="4" stroke-miterlimit="10"/>
<defs>
<filter id="filter0_d_227_2585" x="0" y="0" width="102" height="102" filterUnits="userSpaceOnUse" color-interpolation-filters="sRGB">
<feFlood flood-opacity="0" result="BackgroundImageFix"/>
<feColorMatrix in="SourceAlpha" type="matrix" values="0 0 0 0 0 0 0 0 0 0 0 0 0 0 0 0 0 0 127 0" result="hardAlpha"/>
<feOffset dy="10"/>
<feGaussianBlur stdDeviation="7.5"/>
<feComposite in2="hardAlpha" operator="out"/>
<feColorMatrix type="matrix" values="0 0 0 0 0 0 0 0 0 0 0 0 0 0 0 0 0 0 0.25 0"/>
<feBlend mode="normal" in2="BackgroundImageFix" result="effect1_dropShadow_227_2585"/>
<feBlend mode="normal" in="SourceGraphic" in2="effect1_dropShadow_227_2585" result="shape"/>
</filter>
</defs>
</svg>
