<svg width="30" height="23" viewBox="0 0 30 23" fill="none" xmlns="http://www.w3.org/2000/svg">
<path d="M25.1986 2.16091C23.3524 1.32829 21.3734 0.712876 19.3039 0.362935C19.2855 0.359397 19.2664 0.361677 19.2493 0.36946C19.2322 0.377243 19.218 0.390144 19.2086 0.406376C18.9552 0.851645 18.6728 1.43206 18.4749 1.89061C16.28 1.56267 14.0486 1.56267 11.8538 1.89061C11.6334 1.38242 11.3848 0.88691 11.1093 0.406376C11.0999 0.389944 11.0858 0.376751 11.0687 0.368558C11.0517 0.360365 11.0326 0.357562 11.0139 0.360521C8.94565 0.710462 6.96668 1.32588 5.11923 2.1597C5.10334 2.16637 5.08986 2.17774 5.08062 2.19228C1.32539 7.7129 0.296079 13.0972 0.801683 18.4139C0.80309 18.4269 0.807132 18.4395 0.813563 18.4509C0.819994 18.4623 0.828679 18.4723 0.839091 18.4802C3.03092 20.076 5.47561 21.2916 8.0708 22.0762C8.08889 22.0817 8.10824 22.0817 8.12632 22.0761C8.14441 22.0705 8.16038 22.0596 8.17216 22.0448C8.73061 21.2979 9.22548 20.5056 9.65157 19.6761C9.65748 19.6647 9.66089 19.6522 9.66156 19.6395C9.66223 19.6267 9.66015 19.6139 9.65546 19.602C9.65077 19.5901 9.64358 19.5794 9.63437 19.5705C9.62516 19.5616 9.61416 19.5548 9.60209 19.5506C8.82257 19.257 8.06728 18.9028 7.34316 18.4911C7.33015 18.4837 7.31919 18.4731 7.31126 18.4604C7.30332 18.4477 7.29867 18.4332 7.29771 18.4183C7.29676 18.4033 7.29953 18.3884 7.30577 18.3747C7.31202 18.3611 7.32155 18.3493 7.33351 18.3402C7.48555 18.228 7.6376 18.111 7.7824 17.9939C7.79543 17.9834 7.81113 17.9767 7.82775 17.9746C7.84437 17.9724 7.86125 17.975 7.87652 17.9819C12.6152 20.1105 17.7473 20.1105 22.4304 17.9819C22.4458 17.9745 22.4628 17.9717 22.4797 17.9736C22.4965 17.9755 22.5125 17.9822 22.5258 17.9927C22.6706 18.111 22.8214 18.228 22.9747 18.3402C22.9867 18.3491 22.9964 18.3608 23.0029 18.3743C23.0093 18.3878 23.0123 18.4027 23.0116 18.4176C23.0109 18.4326 23.0065 18.4471 22.9988 18.4599C22.9911 18.4727 22.9803 18.4834 22.9674 18.4911C22.2458 18.9062 21.4953 19.2573 20.7073 19.5493C20.6952 19.5537 20.6842 19.5607 20.6749 19.5697C20.6657 19.5787 20.6585 19.5895 20.6539 19.6015C20.6492 19.6135 20.6471 19.6263 20.6478 19.6392C20.6485 19.6521 20.6519 19.6646 20.6578 19.6761C21.0922 20.505 21.5894 21.2942 22.136 22.0436C22.1474 22.059 22.1632 22.0705 22.1813 22.0765C22.1995 22.0825 22.2191 22.0829 22.2374 22.0774C24.837 21.295 27.2857 20.0788 29.4799 18.4802C29.4906 18.4727 29.4996 18.463 29.5063 18.4518C29.5129 18.4406 29.5171 18.428 29.5186 18.4151C30.1219 12.2682 28.5073 6.92734 25.236 2.19469C25.228 2.17931 25.2147 2.16733 25.1986 2.16091ZM10.3599 15.1763C8.93359 15.1763 7.75706 13.8863 7.75706 12.3044C7.75706 10.7212 8.91066 9.43244 10.3599 9.43244C11.82 9.43244 12.9857 10.732 12.9627 12.3044C12.9627 13.8875 11.8091 15.1763 10.3599 15.1763ZM19.9833 15.1763C18.5558 15.1763 17.3804 13.8863 17.3804 12.3044C17.3804 10.7212 18.5328 9.43244 19.9833 9.43244C21.4434 9.43244 22.609 10.732 22.5861 12.3044C22.5861 13.8875 21.4446 15.1763 19.9833 15.1763Z" fill="#A7A7A7"/>
</svg>
