<svg width="120" height="146" viewBox="0 0 120 146" fill="none" xmlns="http://www.w3.org/2000/svg">
<g clip-path="url(#clip0_227_2018)">
<path d="M14.8945 67.0422L16.5976 66.6871C17.94 66.4133 19.2622 66.0486 20.5551 65.5956C21.9085 65.1149 23.2861 64.7054 24.6824 64.3688L26.7834 63.8644L26.9248 64.6937L28.6299 64.4133C29.1495 64.3283 29.664 64.2151 30.1713 64.0743C30.7309 63.9189 31.2622 63.7596 31.7551 63.6002C32.2481 63.4408 32.7309 63.2652 33.2481 63.0574L36.1996 61.8731L36.1228 63.239L36.9713 62.9686C38.046 62.6256 39.1268 62.2968 40.1875 61.9881C41.1046 61.7056 42.0548 61.4171 43.038 61.1225C43.9673 60.8441 44.7915 60.5677 45.4905 60.2973L48.8521 59L48.2056 62.5409C47.9511 63.9331 47.7188 65.4987 47.5127 67.1976C47.2986 68.9529 47.0844 70.799 46.8743 72.6875C46.6642 74.576 46.4703 76.521 46.3147 78.4498C46.1592 80.3786 45.9875 82.3075 45.8218 84.1274C45.4723 88.3644 45.1652 92.8031 44.9127 97.3085L44.838 98.6643L30.337 103.614L30.2521 101.878L17.1208 106.503L14.8945 67.0422Z" fill="#2DDE7E"/>
<path d="M46.2181 62.1801C45.9487 63.618 45.7117 65.2092 45.507 66.9538C45.3023 68.6983 45.0888 70.5351 44.8666 72.4639C44.6511 74.3927 44.4625 76.333 44.3009 78.2847C44.1393 80.2364 43.9757 82.1229 43.81 83.9441C43.4544 88.2484 43.1501 92.6656 42.8969 97.1959L32.2241 100.838L31.2827 81.7651L30.6989 81.86L28.7858 100.257L18.9797 103.707L17.008 68.6627C18.4403 68.3712 19.851 67.9822 21.2302 67.4985C22.5163 67.0407 23.8259 66.6514 25.1534 66.3323C25.1534 66.3646 25.1595 66.7009 25.1716 67.3411C25.1837 67.9814 25.1898 68.8275 25.1898 69.8793C25.1898 70.9244 25.2006 72.1014 25.2221 73.4101C25.2437 74.7189 25.2484 76.52 25.2363 78.8133C25.2363 81.1 25.2504 84.269 25.2787 88.3204L26.008 88.2013C26.3595 85.0888 26.6551 82.5412 26.8949 80.5586C27.1346 78.5759 27.3278 76.9672 27.4746 75.7324C27.6201 74.495 27.7548 73.3019 27.8787 72.1532C28.0026 71.0045 28.1265 69.9379 28.2504 68.9533C28.3716 67.9714 28.4598 67.1434 28.5151 66.4696L28.9534 66.3969C29.5453 66.2999 30.1313 66.1706 30.709 66.0095C31.2962 65.8468 31.8511 65.6814 32.3736 65.5132C32.8949 65.3437 33.4363 65.148 33.9898 64.922C33.9828 65.5336 34.0084 66.1452 34.0666 66.754C34.1339 67.6714 34.208 68.7797 34.2888 70.0791C34.3696 71.3784 34.4713 72.8062 34.5938 74.3625C34.7164 75.9201 34.8342 77.4454 34.9474 78.9384C35.0605 80.4315 35.1689 81.8498 35.2726 83.1936C35.375 84.5386 35.4558 85.6874 35.5151 86.6397L36.3878 86.4964L37.5736 64.8837C38.6511 64.5407 39.7117 64.2172 40.7555 63.9132C41.674 63.6307 42.6241 63.3423 43.606 63.0477C44.5878 62.7531 45.4565 62.4626 46.206 62.172L46.2181 62.1801ZM51.4747 55.8125L44.7494 58.4092C44.1029 58.6574 43.3353 58.9176 42.4484 59.1799C41.505 59.4624 40.5454 59.7549 39.5938 60.0475L38.2949 60.4328L38.3898 58.8187L32.4848 61.1854C32.008 61.3872 31.5514 61.5425 31.1252 61.6797C30.6585 61.8311 30.1555 61.9824 29.6241 62.1297C29.2726 62.2265 28.9211 62.3072 28.5736 62.3738L28.408 61.3972L24.1979 62.4061C22.7324 62.7588 21.2867 63.1885 19.8666 63.6933C18.66 64.1131 17.4262 64.4502 16.1736 64.7021L12.7676 65.4103L12.9696 68.8806L14.9413 103.925L15.2423 109.289L20.3171 107.504L28.3635 104.679L28.4484 106.388L33.5252 104.655L44.1999 101.011L46.7736 100.133L46.9272 97.4198C47.1777 92.9366 47.4827 88.5201 47.8322 84.2911C47.9979 82.4753 48.1635 80.5606 48.3252 78.6156C48.4807 76.713 48.6666 74.7942 48.8767 72.9098C49.0868 71.0253 49.2989 69.2095 49.513 67.438C49.7151 65.7816 49.9413 64.2542 50.1898 62.9024L51.4827 55.8186L51.4747 55.8125Z" fill="#2DDE7E"/>
<path d="M45.2525 61.9296L64.8141 56.9844L64.3737 59.9745C64.2726 60.6565 64.204 61.3586 64.1716 62.0627V62.1071V62.1515C64.1151 62.7567 64.0666 63.3923 64.0302 64.0602C63.9939 64.728 63.9716 65.3211 63.9595 65.8276L63.9272 67.3368L62.4666 67.7302C62.0969 67.8291 61.6019 67.9319 60.9494 68.0631L59.0322 68.4263C58.3676 68.5534 57.6585 68.6785 56.9252 68.7975L56.7454 68.8278L56.6019 73.543L56.8949 73.4824C57.6262 73.3291 58.3898 73.1858 59.1474 73.0628C59.9979 72.9215 60.412 72.8328 60.612 72.7803L63.0848 72.1407L63.1373 74.693C63.1575 75.605 63.1817 76.5088 63.212 77.3926C63.2423 78.3207 63.2504 79.273 63.2383 80.2172L63.2181 81.7405L61.7454 82.144C61.3696 82.2449 60.806 82.366 60.0221 82.5113C59.3151 82.6444 58.5878 82.7877 57.8646 82.939L56.6888 83.1771L56.5939 87.9003L63.2322 85.7071L63.9696 95.4664L44.4727 101.84L45.2525 61.9296Z" fill="#2DDE7E"/>
<path d="M62.366 59.6804C62.2569 60.4296 62.1822 61.1889 62.1418 61.9583C62.0812 62.5999 62.0327 63.2637 61.9963 63.9497C61.96 64.6357 61.9357 65.2456 61.9236 65.7796C61.6044 65.8664 61.1479 65.9653 60.5499 66.0803L58.6408 66.4434C57.9674 66.5712 57.2805 66.6923 56.5802 66.8066L54.762 67.1052L54.4893 76.0654C55.4819 75.8368 56.4125 75.635 57.2812 75.4602C57.9883 75.3109 58.7142 75.1763 59.459 75.0566C60.2038 74.9369 60.7512 74.8307 61.1014 74.7379C61.1216 75.666 61.1465 76.5753 61.1761 77.4657C61.2058 78.3561 61.2145 79.2681 61.2024 80.2016C60.8832 80.2863 60.3613 80.3966 59.6367 80.5325C58.9095 80.6697 58.1782 80.8129 57.4388 80.9683C56.6004 81.1377 55.6832 81.3234 54.6852 81.5191L54.5014 90.7154L61.4085 88.4355L61.8327 94.0465L46.5418 99.0401L47.2347 63.5098L62.366 59.6764V59.6804ZM67.2448 54.2812L61.3862 55.7642L46.2529 59.5977L43.265 60.3543L43.2044 63.4312L42.5115 98.9614L42.4004 104.643L47.8085 102.876L63.0974 97.8779L66.1075 96.8954L65.859 93.7357L65.4367 88.1268L65.0731 83.3309L65.1984 83.2966L65.2408 80.25C65.2549 79.2654 65.2408 78.2828 65.2125 77.3265C65.1822 76.4468 65.158 75.549 65.1398 74.6491L65.0347 69.5445L60.0852 70.8257C59.9822 70.8539 59.6489 70.9307 58.8024 71.0699L58.6792 71.09L58.6974 70.5352L59.3923 70.4081L61.3155 70.0429C62.0125 69.9097 62.5559 69.7887 62.9721 69.6777L65.8953 68.8908L65.962 65.8644C65.9741 65.3802 65.9963 64.8072 66.0307 64.1575C66.065 63.5078 66.1095 62.9106 66.164 62.3417V62.2529V62.1641C66.1963 61.5225 66.259 60.8849 66.3499 60.2676L67.2307 54.2853L67.2448 54.2812ZM58.659 84.826C59.2347 84.7089 59.8125 84.5939 60.3802 84.489L60.5681 84.4527L60.1398 84.5939L58.6529 85.0842V84.826H58.659Z" fill="#2DDE7E"/>
<path d="M62.9945 98.2711H62.5904L60.3965 98.2206L60.6268 96.0416C61.2399 90.2324 61.538 84.3943 61.5197 78.5529C61.4995 72.728 61.4308 66.7599 61.3177 60.81L61.2894 59.3977L62.6046 58.8872C64.253 58.2456 66.0025 57.6242 67.8046 57.0411C69.7191 56.4238 71.6775 55.9516 73.6631 55.6288C74.4053 55.5093 75.1559 55.4505 75.9076 55.4532C76.1702 55.4532 76.4389 55.4532 76.7157 55.4734C77.9059 55.5266 79.0736 55.8167 80.15 56.3269C81.2606 56.8655 82.2429 57.6353 83.0308 58.5846C83.9056 59.6236 84.4874 60.9876 84.7581 62.6359C84.9993 64.0506 84.9808 65.4972 84.7036 66.9052C84.4509 68.1775 84.0311 69.4108 83.4551 70.5732C82.8976 71.6941 82.1834 72.7301 81.3339 73.6501L81.1157 73.8821C81.4399 74.1548 81.7494 74.4444 82.0429 74.7497C82.6952 75.4483 83.2399 76.2397 83.6591 77.0982C84.1451 78.0889 84.4782 79.1474 84.647 80.2376C84.9166 81.8125 84.8219 83.4281 84.3702 84.9609C83.9306 86.4209 83.2431 87.7947 82.3379 89.0223C81.4092 90.2825 80.3161 91.4129 79.0874 92.3837C77.8513 93.3646 76.5287 94.2318 75.1359 94.9743C73.7399 95.7201 72.286 96.3523 70.7884 96.8648C69.3486 97.3617 67.8702 97.7389 66.3682 97.9927C65.253 98.1762 64.1247 98.2693 62.9945 98.2711V98.2711ZM72.7015 79.5072C72.6854 80.1125 72.6753 80.6997 72.6692 81.2586C72.6692 81.5895 72.6591 81.9304 72.653 82.2794C72.977 82.1143 73.2895 81.9276 73.5884 81.7206C73.9921 81.4477 74.333 81.0921 74.5884 80.6775C74.7335 80.4349 74.7777 80.1452 74.7116 79.8704C74.7059 79.7947 74.6824 79.7214 74.6429 79.6565C74.4562 79.4905 74.2377 79.3643 74.0005 79.2853C73.67 79.1704 73.324 79.1058 72.9743 79.0936C72.8874 79.0936 72.7965 79.0936 72.7096 79.0936C72.7076 79.2369 72.7036 79.3761 72.7015 79.5113V79.5072ZM72.9682 67.0848C72.9682 67.3531 72.9682 67.6255 72.9682 67.908C73.1702 67.7869 73.35 67.6638 73.5238 67.5428C73.6681 67.4419 73.8071 67.3335 73.9399 67.2179L73.8773 67.2018C73.5786 67.1352 73.2742 67.0973 72.9682 67.0888V67.0848Z" fill="#2DDE7E"/>
<path d="M75.9155 57.4748C76.1458 57.4748 76.3822 57.4748 76.6206 57.4929C77.5401 57.5328 78.4422 57.7572 79.2731 58.1527C80.1239 58.5647 80.8757 59.1551 81.4771 59.8838C82.1182 60.6424 82.5445 61.668 82.7559 62.9606C82.9583 64.1349 82.9446 65.3362 82.7155 66.5056C82.4976 67.6026 82.1362 68.6662 81.6408 69.6692C81.17 70.6196 80.5666 71.4986 79.8489 72.28C79.1972 72.9995 78.4422 73.6183 77.6084 74.116C78.1282 74.3064 78.6222 74.5606 79.0792 74.8727C79.6261 75.2398 80.1309 75.6661 80.5842 76.1438C81.1007 76.6962 81.5317 77.3225 81.863 78.002C82.2554 78.8106 82.523 79.6738 82.6569 80.5623C82.8781 81.836 82.8035 83.1434 82.4388 84.3837C82.0649 85.6231 81.4799 86.7889 80.7095 87.8298C79.8866 88.9416 78.9184 89.9384 77.8307 90.7936C76.6931 91.6983 75.476 92.4986 74.1943 93.1845C72.8937 93.8789 71.5392 94.4673 70.1438 94.9439C68.8108 95.4049 67.4418 95.7545 66.0509 95.989C65.0441 96.1581 64.0253 96.2458 63.0044 96.2513H62.6529C63.2745 90.3691 63.576 84.4575 63.5559 78.5427C63.5357 72.6526 63.4684 66.7282 63.3539 60.7695C64.9808 60.1373 66.6778 59.5321 68.4448 58.9537C70.2636 58.3683 72.1241 57.9211 74.0105 57.616C74.6445 57.5151 75.2856 57.4658 75.9276 57.4687L75.9155 57.4748ZM70.8468 71.136C71.5485 70.8872 72.2329 70.592 72.8953 70.2523C73.5188 69.9407 74.119 69.5847 74.6913 69.187C75.1509 68.8778 75.5598 68.4994 75.9034 68.0652C76.037 67.9079 76.1358 67.724 76.1933 67.5258C76.2507 67.3276 76.2655 67.1195 76.2367 66.9152C76.2103 66.6967 76.1408 66.4856 76.0323 66.2941C75.9238 66.1026 75.7783 65.9345 75.6044 65.7994C75.2277 65.5237 74.7966 65.3311 74.3398 65.2345C73.8452 65.1184 73.3387 65.0602 72.8307 65.061H72.8145C72.3608 65.0585 71.9076 65.0909 71.459 65.1579L70.9741 65.2385C70.9741 65.6057 70.9701 66.0382 70.962 66.5359C70.962 67.0342 70.962 67.5568 70.9458 68.1076C70.9297 68.6584 70.9175 69.1991 70.8913 69.7358C70.865 70.2725 70.8468 70.7446 70.8468 71.136V71.136ZM70.6105 85.1726C71.299 84.9798 71.9774 84.7522 72.6428 84.4906C73.3867 84.2052 74.0935 83.8313 74.7478 83.3769C75.383 82.9428 75.9192 82.3797 76.3216 81.7245C76.7149 81.0698 76.8537 80.2936 76.7115 79.5434C76.6428 79.0168 76.3954 78.5297 76.0105 78.1634C75.6251 77.8183 75.1745 77.5535 74.6852 77.3846C74.1648 77.2024 73.6201 77.099 73.0691 77.0779C72.9418 77.0779 72.8185 77.0779 72.6953 77.0779C72.2894 77.0755 71.884 77.1066 71.4832 77.1707L71.0792 77.2393C70.9561 77.2605 70.836 77.2964 70.7216 77.3463C70.7216 78.1439 70.7135 78.8514 70.6973 79.4688C70.6812 80.0862 70.6704 80.6774 70.665 81.2423C70.6569 81.8072 70.6462 82.3984 70.6327 83.0158C70.6192 83.6332 70.6132 84.3561 70.6145 85.1847L70.6105 85.1726ZM75.9155 53.4395C75.0542 53.4376 74.1942 53.505 73.3438 53.6413C71.2579 53.9803 69.2003 54.4747 67.1882 55.1202C65.3519 55.7154 63.564 56.3489 61.8771 57.0046L59.2509 58.0256L59.3054 60.8502C59.4185 66.786 59.4872 72.7542 59.5074 78.5629C59.5247 84.3308 59.2307 90.0954 58.6266 95.8317L58.166 100.19L62.5519 100.289C62.6994 100.289 62.8468 100.289 62.9963 100.289C64.2365 100.283 65.4743 100.177 66.6973 99.9718C68.3108 99.7008 69.8988 99.2959 71.4448 98.7612C73.0453 98.2142 74.5991 97.5395 76.0913 96.7436C77.5905 95.9423 79.0145 95.0078 80.3458 93.9512C81.7159 92.8733 82.9349 91.6165 83.9701 90.2146C85.0124 88.8011 85.8038 87.2191 86.3095 85.5378C86.8501 83.7123 86.9648 81.7873 86.6448 79.9106C86.4437 78.6194 86.0486 77.3658 85.4731 76.1922C85.0365 75.316 84.4937 74.4968 83.8569 73.7529C84.3862 73.0346 84.8519 72.2718 85.2489 71.473C85.9019 70.1524 86.3774 68.7515 86.663 67.3066C86.9904 65.6588 87.0137 63.9651 86.7317 62.309C86.4004 60.2913 85.6691 58.6066 84.5559 57.2871C83.5872 56.1179 82.378 55.1704 81.0105 54.5089C79.6957 53.8835 78.2692 53.5268 76.8145 53.4597C76.5115 53.4456 76.2084 53.4375 75.9135 53.4375L75.9155 53.4395Z" fill="#2DDE7E"/>
<path d="M90.4485 94.2339C90.0142 94.2339 89.5798 94.2138 89.1556 94.1714C87.9498 94.0628 86.7752 93.7289 85.693 93.1868C84.5946 92.6308 83.644 91.8225 82.9192 90.8282C82.1397 89.7315 81.6328 88.4651 81.4404 87.134C81.285 86.0824 81.2938 85.0131 81.4667 83.9643L81.6687 82.5943L93.5354 79.9492L93.8505 81.8599C93.938 81.8163 94.023 81.7677 94.1051 81.7146C94.4127 81.5157 94.6908 81.2746 94.9313 80.9984C95.1473 80.7614 95.3196 80.4882 95.4404 80.1914C95.503 80.0359 95.5192 79.8655 95.4869 79.7011C95.4526 79.4892 95.1758 79.2774 94.9495 79.1382C94.8485 79.0756 94.5293 78.9364 93.8 78.9364C93.3604 78.9414 92.922 78.9819 92.4889 79.0574C91.333 79.2446 90.192 79.5143 89.0748 79.8645C87.8364 80.2559 86.7677 80.5626 85.897 80.7744L83.501 81.3595L83.0526 70.6218L83.7697 69.9862C84.6122 69.2357 85.5031 68.4226 86.4162 67.5651C86.6182 67.3815 86.8021 67.2019 86.9879 67.0224L83.1899 67.7164L82.0202 55.2899L83.7859 54.9207C86.6728 54.3154 89.4081 53.7343 91.9152 53.1896L91.9657 53.1775H92.0182C93.0526 53.008 94.1233 52.8083 95.196 52.5843C96.3004 52.353 97.3327 52.1337 98.293 51.9266C99.2586 51.7248 100.164 51.5372 100.982 51.3838C101.8 51.2305 102.418 51.1235 102.887 51.0469L105.109 50.6797L105.81 64.5266L100.002 68.9028C101.235 69.2357 102.406 69.7643 103.471 70.4684C104.504 71.1572 105.374 72.0635 106.02 73.1237C106.603 74.099 106.997 75.1749 107.182 76.2953C107.479 78.0991 107.297 80.0219 106.642 82.0113C105.993 83.957 105.002 85.7715 103.715 87.37C102.379 89.0339 100.783 90.4727 98.9899 91.6312C97.133 92.8527 95.0401 93.6713 92.8465 94.0342C92.0539 94.1652 91.2519 94.232 90.4485 94.2339Z" fill="#2DDE7E"/>
<path d="M103.219 53.0393L103.752 63.5632L94.8753 70.2496C96.342 70.2489 97.8034 70.4271 99.2268 70.7802C100.335 71.0543 101.389 71.5133 102.344 72.138C103.135 72.6596 103.801 73.3484 104.296 74.1556C104.75 74.914 105.057 75.7512 105.201 76.6232C105.446 78.1122 105.291 79.6987 104.736 81.3828C104.163 83.1023 103.287 84.7054 102.148 86.1161C100.944 87.6142 99.5061 88.9087 97.8895 89.9496C96.2692 91.0175 94.4415 91.7318 92.5258 92.0459C91.8402 92.1603 91.1462 92.2183 90.4511 92.2194C90.0848 92.2203 89.7186 92.2028 89.3541 92.1669C88.3985 92.085 87.467 91.8235 86.6087 91.3962C85.793 90.983 85.0874 90.382 84.5501 89.6429C83.9595 88.803 83.5779 87.8347 83.4369 86.8182C83.3144 85.9731 83.3246 85.114 83.4672 84.272L91.8854 82.3936C91.9932 83.0419 92.2322 83.4845 92.6026 83.7212C92.8805 83.8985 93.2041 83.991 93.5339 83.9875C93.6531 83.9872 93.772 83.9771 93.8895 83.9572C94.3575 83.8702 94.8025 83.6875 95.1965 83.4206C95.6596 83.1203 96.079 82.7578 96.443 82.3431C96.8099 81.9342 97.1038 81.4654 97.3117 80.9571C97.5114 80.4585 97.5687 79.9145 97.4773 79.3853C97.3507 78.6079 96.8612 77.9575 96.0086 77.4343C95.4551 77.094 94.7144 76.9232 93.7864 76.9218C93.2372 76.9264 92.6893 76.9756 92.148 77.0691C90.8967 77.2728 89.6619 77.5668 88.4531 77.9488C87.2504 78.3281 86.2342 78.6193 85.4046 78.8224L85.0975 71.5005C85.9689 70.7284 86.8652 69.9086 87.7864 69.041C88.7076 68.1734 89.5386 67.3455 90.2794 66.5573C91.1669 65.6817 92.0026 64.7973 92.7864 63.9042L84.9905 65.3467L84.2026 56.907C87.1278 56.2964 89.8423 55.7187 92.346 55.1739C93.4154 54.9977 94.5043 54.796 95.6127 54.5686C96.7211 54.3413 97.7575 54.1221 98.7218 53.9109C99.6847 53.7038 100.56 53.5262 101.348 53.3782C102.14 53.233 102.762 53.122 103.215 53.0474L103.219 53.0393ZM107.021 48.3342L102.56 49.0666C102.087 49.1433 101.451 49.2563 100.615 49.4116C99.7783 49.567 98.845 49.7546 97.8652 49.9665C96.9177 50.1682 95.8794 50.3902 94.7824 50.6202C93.7359 50.8381 92.6955 51.0237 91.6895 51.1972L91.5864 51.2153L91.4854 51.2376C88.9885 51.7783 86.2592 52.3593 83.3703 52.9646L79.841 53.7031L80.1804 57.2763L80.9682 65.716L81.3177 69.4627L80.9885 69.7553L81.0693 71.6659L81.3743 78.9879L81.441 80.5878L79.8773 80.9369L79.4733 83.6748C79.2692 84.9311 79.2617 86.2113 79.4511 87.4699C79.6952 89.1178 80.3281 90.6842 81.2975 92.0398C82.2081 93.2881 83.4007 94.3043 84.7783 95.0057C86.0852 95.6587 87.5029 96.0617 88.9581 96.1941C89.447 96.2405 89.9501 96.2647 90.4491 96.2647C91.3634 96.2623 92.2761 96.1868 93.1783 96.0388C95.6492 95.6304 98.007 94.7094 100.1 93.3351C102.077 92.0559 103.836 90.468 105.31 88.632C106.745 86.8462 107.851 84.8191 108.574 82.6458C109.332 80.3437 109.538 78.1001 109.18 75.9735C108.957 74.6057 108.477 73.2922 107.766 72.1017C106.971 70.7877 105.898 69.6637 104.621 68.809C104.419 68.6758 104.217 68.5447 104.015 68.4216L106.184 66.7873L107.896 65.4981L107.786 63.3614L107.253 52.8375L107.025 48.3281L107.021 48.3342Z" fill="#2DDE7E"/>
<path d="M22.7614 0.78125C36.224 7.94984 41.0947 15.4776 47.7271 27.7084L57.6119 42.4753L63.121 36.7655H64.9574L59.1089 42.895L60.9452 44.7996H62.7796C85.6786 17.1804 103.838 10.3871 107.513 10.3871C111.978 10.3871 111.608 11.5432 114.489 17.8886C118.161 17.8886 119.998 19.1577 119.998 21.6958C119.998 26.4756 120.648 27.4663 99.8402 44.2669L72.9291 68.9767L74.1412 76.6335C85.0947 95.3429 90.8665 106.073 98.0442 128.623L98.2281 132.318H100.064L90.8806 145.646H85.3735V141.839L79.8644 145.646L55.5917 95.4458H53.7553C41.8766 110.453 34.2624 112.696 21.6644 140.842H17.9917V137.035L19.8281 135.13L17.9917 133.226V131.321C22.222 114.575 30.5513 120.022 46.4644 93.5916L48.2483 87.8293L50.2685 86.1526C20.4038 128.968 25.0503 105.092 16.1614 129.42L12.8584 135.245C8.89609 135.245 4.61192 130.807 0.00585938 121.929C0.00585938 114.76 8.00384 109.48 37.3796 63.3375C26.1473 41.6097 19.8584 33.0107 17.6281 21.7342H19.4644L12.121 2.68587H13.9554L15.7917 4.58852L22.7614 0.78125ZM3.67252 121.919L37.4099 76.6335C39.8557 76.6335 41.0799 74.0947 41.0826 69.017L41.0038 68.9767C19.3372 98.3955 10.1513 101.834 3.67252 121.919ZM64.917 33.2346H66.7533L64.9574 36.7655V34.8608L64.917 33.2346ZM79.6442 49.9808L75.9735 55.6927H77.8079L81.4806 49.9808H79.6442ZM98.3331 6.57988H100.169L68.5897 33.2346H66.7533V31.33L98.3331 6.57988ZM79.8644 130.415V132.318L81.7008 139.934H83.5372V132.318L81.7008 130.415H79.8644Z" fill="#2DDE7E"/>
<path d="M18.9893 104.066L17.0176 69.0219C18.4499 68.7304 19.8606 68.3414 21.2398 67.8577C22.5259 67.3999 23.8355 67.0106 25.163 66.6915C25.163 66.7238 25.1691 67.0601 25.1812 67.7004C25.1933 68.3406 25.1994 69.1867 25.1994 70.2385C25.1994 71.2837 25.2102 72.4606 25.2317 73.7694C25.2533 75.0781 25.258 76.8792 25.2459 79.1725C25.2459 81.4592 25.26 84.6282 25.2883 88.6795L26.0176 88.5605C26.3691 85.4467 26.6647 82.8991 26.9044 80.9178C27.1442 78.9365 27.3374 77.3278 27.4842 76.0916C27.6297 74.8542 27.7644 73.6611 27.8883 72.5124C28.0122 71.3637 28.1361 70.297 28.26 69.3124C28.3812 68.3305 28.4694 67.5027 28.5246 66.8288L28.963 66.7561C29.5549 66.6592 30.1409 66.5299 30.7186 66.3688C31.3065 66.2074 31.862 66.0399 32.3832 65.8724C32.9044 65.705 33.4459 65.5072 33.9994 65.2812C33.9924 65.8928 34.018 66.5044 34.0762 67.1132C34.1435 68.0319 34.2176 69.1403 34.2984 70.4383C34.3792 71.7363 34.4809 73.1641 34.6034 74.7217C34.726 76.2793 34.8438 77.8046 34.957 79.2976C35.0701 80.7906 35.1785 82.209 35.2822 83.5528C35.3846 84.8979 35.4654 86.0466 35.5247 86.9989L36.3974 86.8556L37.5832 65.2429C38.6607 64.8999 39.7213 64.5764 40.7651 64.2724C41.6836 63.99 42.6337 63.7014 43.6156 63.4069C44.5974 63.1123 45.4661 62.8218 46.2156 62.5312C45.9462 63.9705 45.7092 65.5617 45.5044 67.3049C45.2997 69.0481 45.0863 70.8848 44.864 72.815C44.6486 74.7439 44.46 76.6841 44.2984 78.6358C44.1368 80.5875 43.9731 82.4706 43.8075 84.2852C43.4519 88.5894 43.1475 93.0067 42.8943 97.5369L32.2216 101.169L31.2802 82.0961L30.6964 82.1909L28.7832 100.588L18.9893 104.066Z" fill="black"/>
<path d="M46.541 99.395L47.2339 63.8647L62.3652 60.0312C62.2561 60.7805 62.1814 61.5398 62.141 62.3091C62.0804 62.9507 62.0319 63.6146 61.9955 64.3006C61.9592 64.9865 61.9349 65.5965 61.9228 66.1305C61.6036 66.2173 61.1471 66.3161 60.5491 66.4311L58.64 66.7943C57.9666 66.9221 57.2797 67.0432 56.5794 67.1575L54.7612 67.4561L54.4885 76.4163C55.4811 76.189 56.4117 75.9872 57.2804 75.811C57.9875 75.6617 58.7134 75.5272 59.4582 75.4075C60.203 75.2878 60.7504 75.1816 61.1006 75.0887C61.1208 76.0168 61.1457 76.9261 61.1753 77.8166C61.205 78.707 61.2137 79.6189 61.2016 80.5524C60.8824 80.6372 60.3605 80.7475 59.6359 80.8833C58.9114 81.0192 58.1787 81.1644 57.438 81.3191C56.5996 81.4886 55.6824 81.6742 54.6844 81.8699L54.5006 91.0662L61.4077 88.7863L61.8319 94.3973L46.541 99.395Z" fill="black"/>
<path d="M82.4385 84.7462C82.0647 85.9856 81.4797 87.1514 80.7092 88.1923C79.8864 89.3041 78.9182 90.301 77.8304 91.1562C76.6929 92.0608 75.4758 92.8611 74.1941 93.5471C72.8935 94.2414 71.5389 94.8298 70.1436 95.3064C68.8106 95.7675 67.4416 96.117 66.0507 96.3515C64.9253 96.5452 63.7844 96.6344 62.6426 96.6179C63.2642 90.7363 63.5656 84.8254 63.5456 78.9113C63.5254 73.0198 63.4581 67.0947 63.3436 61.136C64.9705 60.5039 66.6675 59.9019 68.4345 59.3303C70.2531 58.7446 72.1137 58.2981 74.0001 57.9946C74.8684 57.8579 75.7488 57.8139 76.6264 57.8635C77.5458 57.9043 78.4477 58.1287 79.2789 58.5232C80.1297 58.9352 80.8815 59.5257 81.483 60.2544C82.124 61.013 82.5503 62.0386 82.7618 63.3312C82.9641 64.5055 82.9505 65.7068 82.7213 66.8762C82.5037 67.9733 82.1423 69.037 81.6466 70.0398C81.1763 70.9905 80.5729 71.8696 79.8547 72.6506C79.2026 73.3701 78.4476 73.9895 77.6143 74.4887C78.1313 74.6749 78.6232 74.9243 79.0789 75.2311C79.6259 75.5983 80.1306 76.0245 80.584 76.5022C81.1005 77.0546 81.5315 77.6809 81.8628 78.3605C82.2551 79.1691 82.5228 80.0323 82.6567 80.9208C82.8785 82.1958 82.8039 83.5046 82.4385 84.7462V84.7462ZM70.681 79.8252C70.6648 80.4426 70.654 81.0338 70.6486 81.5987C70.6432 82.1637 70.6325 82.7548 70.6163 83.3722C70.6001 83.9896 70.5941 84.7126 70.5981 85.5412C71.2867 85.3484 71.965 85.1208 72.6304 84.8592C73.3788 84.5734 74.0897 84.1981 74.7476 83.7414C75.3827 83.3073 75.919 82.7442 76.3214 82.089C76.7147 81.4343 76.8535 80.6581 76.7113 79.908C76.6426 79.3814 76.3952 78.8943 76.0102 78.5279C75.6248 78.1828 75.1743 77.918 74.685 77.7491C74.1646 77.5669 73.6199 77.4635 73.0688 77.4424C72.54 77.418 72.0101 77.4463 71.487 77.5272L71.083 77.5958C70.9599 77.6169 70.8398 77.6528 70.7254 77.7027C70.7072 78.5017 70.6951 79.2079 70.681 79.8252ZM70.9496 66.9125C70.9496 67.4109 70.9496 67.9334 70.9335 68.4842C70.9173 69.035 70.9052 69.5757 70.8789 70.1124C70.8527 70.6491 70.8345 71.1213 70.8345 71.5147C71.5359 71.2643 72.2202 70.9684 72.883 70.6289C73.5064 70.3173 74.1066 69.9613 74.6789 69.5636C75.138 69.2545 75.5468 68.8769 75.8911 68.4439C76.0246 68.2861 76.1234 68.1019 76.1808 67.9034C76.2382 67.7049 76.2531 67.4964 76.2244 67.2918C76.1977 67.0734 76.1282 66.8624 76.0197 66.6709C75.9111 66.4795 75.7658 66.3113 75.5921 66.1761C75.2154 65.9003 74.7843 65.7078 74.3274 65.6111C73.8275 65.494 73.3156 65.4357 72.8022 65.4376C72.3485 65.4351 71.8953 65.4675 71.4466 65.5345L70.9618 65.6152C70.9564 65.973 70.9523 66.4027 70.9496 66.9044V66.9125Z" fill="black"/>
<path d="M104.735 81.7364C104.162 83.4556 103.286 85.0585 102.148 86.4697C100.944 87.9678 99.5056 89.2623 97.889 90.3032C96.2692 91.3732 94.4415 92.0896 92.5253 92.4055C91.4779 92.5841 90.4116 92.6249 89.3536 92.5266C88.3983 92.4443 87.467 92.1836 86.6082 91.7579C85.7924 91.3439 85.0869 90.7422 84.5496 90.0025C83.959 89.1627 83.5774 88.1944 83.4364 87.1779C83.3139 86.3327 83.3241 85.4737 83.4667 84.6317L91.8849 82.7533C91.9927 83.4002 92.2317 83.8428 92.6021 84.0809C92.985 84.3212 93.4456 84.4057 93.889 84.3169C94.357 84.2298 94.802 84.0471 95.196 83.7802C95.6596 83.4806 96.0791 83.118 96.4425 82.7028C96.8095 82.2939 97.1033 81.825 97.3112 81.3167C97.5109 80.8182 97.5682 80.2741 97.4769 79.745C97.3503 78.9675 96.8607 78.3172 96.0082 77.7939C95.1556 77.2707 93.8721 77.149 92.1577 77.4287C90.9065 77.6334 89.6717 77.9274 88.4627 78.3085C87.26 78.6878 86.2438 78.979 85.4142 79.1821L85.1071 71.8602C85.9785 71.0881 86.8748 70.2689 87.796 69.4027C88.7173 68.5365 89.5455 67.7113 90.2809 66.9271C91.1684 66.0515 92.0041 65.167 92.788 64.2739L84.992 65.7024L84.2041 57.2627C87.1294 56.6507 89.8439 56.073 92.3476 55.5296C93.4169 55.3547 94.5058 55.153 95.6142 54.9243C96.7226 54.6956 97.7583 54.4696 98.7213 54.2464C99.6843 54.0392 100.56 53.8624 101.348 53.7157C102.139 53.5685 102.762 53.4575 103.214 53.3828L103.748 63.9067L94.8708 70.5931C96.3375 70.5935 97.7986 70.7716 99.2223 71.1237C100.331 71.3978 101.384 71.8569 102.339 72.4815C103.131 73.0025 103.797 73.6914 104.291 74.4992C104.746 75.2567 105.053 76.0933 105.196 76.9647C105.444 78.4618 105.29 80.0523 104.735 81.7364Z" fill="black"/>
<path d="M42.2498 54.8804V46.2369L42.0801 44.875H45.2154L50.0195 49.7415L50.6841 50.49H50.87V44.875H54.1407V54.8804H51.2962L46.3568 49.9634L45.6922 49.1564H45.5205V54.8743L42.2498 54.8804Z" fill="black"/>
<path d="M55.5059 54.8804L56.1523 53.8595L59.7644 49.8787L55.5059 44.875H59.7806L61.8776 47.9559H62.0634L64.1604 44.875H68.4352L67.7705 45.8838L64.1766 49.8827L68.4352 54.8844H64.1604L62.0634 51.7874H61.8776L59.7806 54.8844L55.5059 54.8804Z" fill="black"/>
<path d="M72.8299 54.8809V47.1736H68.7754V44.8594H80.24V47.1736H76.135V54.8809H72.8299Z" fill="black"/>
</g>
<defs>
<clipPath id="clip0_227_2018">
<rect width="120" height="144.865" fill="white" transform="translate(0 0.78125)"/>
</clipPath>
</defs>
</svg>
