<svg width="131" height="39" viewBox="0 0 131 39" fill="none" xmlns="http://www.w3.org/2000/svg">
<path d="M24.242 0.199997V23.258L7.664 0.199997H0.32V38H8.312V14.402L25.43 38H32.288V0.199997H24.242ZM70.1935 38L58.3675 18.506L69.2215 0.199997H60.2575L53.4535 11.864L46.7035 0.199997H37.5235L48.5395 18.182L36.7675 38H46.0015L53.5615 25.04L61.0135 38H70.1935ZM100.703 0.199997H71.4895V7.814H82.0195V38H90.1735V7.814H100.703V0.199997ZM121.499 14.117L129.308 1.634V0.0949988H105.14V7.391H118.136L111.239 18.791V20.33H116.768C120.245 20.33 122.525 22.382 122.525 25.574C122.525 28.823 120.359 31.103 117.338 31.103C114.431 31.103 112.493 29.108 112.379 26.087H104.228C104.456 33.554 109.814 38.684 117.338 38.684C125.033 38.684 130.733 33.269 130.733 25.859C130.733 19.931 127.085 15.428 121.499 14.117Z" fill="white"/>
</svg>
