<svg width="79" height="50" viewBox="0 0 79 50" fill="none" xmlns="http://www.w3.org/2000/svg">
<path d="M54.3231 48.4392C67.3756 48.4392 77.9568 37.858 77.9568 24.8055C77.9568 11.753 67.3756 1.17188 54.3231 1.17188C41.2706 1.17188 30.6895 11.753 30.6895 24.8055C30.6895 37.858 41.2706 48.4392 54.3231 48.4392Z" stroke="#2DDE7E" stroke-width="2" stroke-miterlimit="10"/>
<path d="M61.8136 25.8653C62.3994 25.2796 62.3994 24.3298 61.8136 23.744L52.2676 14.1981C51.6819 13.6123 50.7321 13.6123 50.1463 14.1981C49.5605 14.7839 49.5605 15.7336 50.1463 16.3194L58.6316 24.8047L50.1463 33.29C49.5605 33.8758 49.5605 34.8255 50.1463 35.4113C50.7321 35.9971 51.6819 35.9971 52.2676 35.4113L61.8136 25.8653ZM0.625 26.3047H60.7529V23.3047H0.625V26.3047Z" fill="white"/>
</svg>
