<svg width="72" height="73" viewBox="0 0 72 73" fill="none" xmlns="http://www.w3.org/2000/svg">
<rect y="0.148438" width="72" height="72" rx="5" fill="#349A62"/>
<path d="M15.8379 18.1172V44.2522H31.8526" stroke="white" stroke-width="4" stroke-miterlimit="10"/>
<path d="M15.8379 20.6381H22.5775V13.8984H42.8181V36.0677" stroke="white" stroke-width="4" stroke-miterlimit="10"/>
<path d="M36.9277 35.8359H45.3577" stroke="white" stroke-width="4" stroke-miterlimit="10"/>
<path d="M36.9277 52.6641H47.048" stroke="white" stroke-width="4" stroke-miterlimit="10"/>
<path d="M17.5039 16.4219V18.1122" stroke="white" stroke-width="4" stroke-miterlimit="10"/>
<path d="M19.1992 14.7266V16.4169" stroke="white" stroke-width="4" stroke-miterlimit="10"/>
<path d="M20.8867 13.0469V14.7372" stroke="white" stroke-width="4" stroke-miterlimit="10"/>
<path d="M32.6992 40.0391V48.469" stroke="white" stroke-width="4" stroke-miterlimit="10"/>
<path d="M49.5605 40.0391V50.1593" stroke="white" stroke-width="4" stroke-miterlimit="10"/>
<path d="M47.8887 48.4844V50.1747" stroke="white" stroke-width="4" stroke-miterlimit="10"/>
<path d="M46.1992 50.1641V51.5943" stroke="white" stroke-width="4" stroke-miterlimit="10"/>
<path d="M34.3867 48.4844V50.1747" stroke="white" stroke-width="4" stroke-miterlimit="10"/>
<path d="M36.0762 50.1641V51.8327" stroke="white" stroke-width="4" stroke-miterlimit="10"/>
<path d="M34.3867 38.3594V40.0497" stroke="white" stroke-width="4" stroke-miterlimit="10"/>
<path d="M36.0762 36.6641V38.3544" stroke="white" stroke-width="4" stroke-miterlimit="10"/>
<path d="M47.8887 53.5312V55.2216" stroke="white" stroke-width="4" stroke-miterlimit="10"/>
<path d="M49.5605 55.2188V56.9091" stroke="white" stroke-width="4" stroke-miterlimit="10"/>
<path d="M51.248 56.9062V58.5966" stroke="white" stroke-width="4" stroke-miterlimit="10"/>
<path d="M52.0918 59.4453H55.4724" stroke="white" stroke-width="4" stroke-miterlimit="10"/>
<path d="M56.3184 55.2188V58.5994" stroke="white" stroke-width="4" stroke-miterlimit="10"/>
<path d="M54.6309 53.5312V55.2216" stroke="white" stroke-width="4" stroke-miterlimit="10"/>
<path d="M52.9355 51.8203V53.5106" stroke="white" stroke-width="4" stroke-miterlimit="10"/>
<path d="M51.248 50.1641V51.8327" stroke="white" stroke-width="4" stroke-miterlimit="10"/>
<path d="M47.8887 38.3594V40.0497" stroke="white" stroke-width="4" stroke-miterlimit="10"/>
<path d="M46.1992 36.6641V38.3544" stroke="white" stroke-width="4" stroke-miterlimit="10"/>
<path d="M38.5898 39.2109H43.6608" stroke="white" stroke-width="4" stroke-miterlimit="10"/>
<path d="M44.5059 40.0391V41.7077" stroke="white" stroke-width="4" stroke-miterlimit="10"/>
<path d="M44.5059 46.7969V48.4872" stroke="white" stroke-width="4" stroke-miterlimit="10"/>
<path d="M46.1992 41.7188V46.7897" stroke="white" stroke-width="4" stroke-miterlimit="10"/>
<path d="M36.0762 41.7188V46.7897" stroke="white" stroke-width="4" stroke-miterlimit="10"/>
<path d="M37.7676 46.7969V48.4872" stroke="white" stroke-width="4" stroke-miterlimit="10"/>
<path d="M37.7676 40.0391V41.7077" stroke="white" stroke-width="4" stroke-miterlimit="10"/>
<path d="M38.5898 49.3125H43.6608" stroke="white" stroke-width="4" stroke-miterlimit="10"/>
</svg>
