<svg width="116" height="19" viewBox="0 0 116 19" fill="none" xmlns="http://www.w3.org/2000/svg">
<path d="M26.7365 7.87909L31.4099 0.84214C31.4992 0.70701 31.4023 0.523438 31.2391 0.523438H28.3759C28.307 0.523438 28.2433 0.556583 28.2051 0.615224L24.9365 5.54109C24.8906 5.60993 24.8906 5.70171 24.939 5.77055L26.3974 7.88163C26.4815 8.00147 26.6574 7.99892 26.7365 7.87909Z" fill="#D8D8D8"/>
<path d="M24.8893 12.9593L28.1859 17.9514C28.2242 18.0075 28.2879 18.0432 28.3568 18.0432H31.3194C31.4826 18.0432 31.5795 17.8622 31.4902 17.7245L26.7275 10.5677C26.6485 10.4479 26.47 10.4453 26.3885 10.5652L24.8944 12.7298C24.8434 12.7986 24.8434 12.8904 24.8893 12.9593Z" fill="#D8D8D8"/>
<path d="M24.1147 11.7876L25.7464 9.32217C25.7923 9.25333 25.7923 9.16409 25.7464 9.0978L24.1657 6.70626L24.13 6.65272L24.0892 6.59408L20.1449 0.615224C20.1067 0.559132 20.0429 0.523438 19.9741 0.523438H17.0114C16.8483 0.523438 16.7514 0.704458 16.8406 0.839588L22.3376 9.16919C22.3835 9.23803 22.3835 9.32726 22.3376 9.39355L16.8406 17.7232C16.7514 17.8583 16.8483 18.0393 17.0114 18.0393H19.9231C19.9919 18.0393 20.0557 18.0036 20.0939 17.9475L24.1147 11.7876Z" fill="white"/>
<path d="M0.222656 17.8457V0.73522C0.222656 0.623037 0.314443 0.53125 0.426626 0.53125H3.21846C3.28475 0.53125 3.34849 0.564397 3.38673 0.620488L11.4129 12.2773C11.5277 12.4431 11.7852 12.3615 11.7852 12.1626V0.73522C11.7852 0.623037 11.877 0.53125 11.9891 0.53125H14.4572C14.5694 0.53125 14.6611 0.623037 14.6611 0.73522V17.8457C14.6611 17.9579 14.5694 18.0497 14.4572 18.0497H12.1676C12.1013 18.0497 12.0376 18.0165 11.9993 17.9604L3.49892 5.554C3.38418 5.38827 3.12667 5.46986 3.12667 5.66873V17.8432C3.12667 17.9553 3.03489 18.0471 2.9227 18.0471H0.429175C0.314442 18.0497 0.222656 17.9579 0.222656 17.8457Z" fill="white"/>
<path d="M32.8555 3.02988V0.73522C32.8555 0.623037 32.9473 0.53125 33.0594 0.53125H46.6412C46.7534 0.53125 46.8452 0.623037 46.8452 0.73522V3.02988C46.8452 3.14206 46.7534 3.23385 46.6412 3.23385H41.593C41.4808 3.23385 41.389 3.32563 41.389 3.43782V17.8457C41.389 17.9579 41.2973 18.0497 41.1851 18.0497H38.5411C38.4289 18.0497 38.3371 17.9579 38.3371 17.8457V3.43782C38.3371 3.32563 38.2454 3.23385 38.1332 3.23385H33.062C32.9473 3.23385 32.8555 3.14206 32.8555 3.02988Z" fill="white"/>
<path d="M49.2129 17.8457V0.73522C49.2129 0.623037 49.3047 0.53125 49.4169 0.53125H52.0608C52.173 0.53125 52.2648 0.623037 52.2648 0.73522V15.1431C52.2648 15.2553 52.3566 15.3471 52.4687 15.3471H60.2935C60.4057 15.3471 60.4975 15.4389 60.4975 15.551V17.8457C60.4975 17.9579 60.4057 18.0497 60.2935 18.0497H49.4143C49.3047 18.0497 49.2129 17.9579 49.2129 17.8457Z" fill="white"/>
<path d="M66.2635 14.4749L64.9861 17.9118C64.9555 17.9909 64.879 18.0444 64.7949 18.0444H62.1305C61.9878 18.0444 61.8883 17.9016 61.9393 17.7665L68.4663 0.656019C68.4969 0.576981 68.5734 0.523438 68.6576 0.523438H71.6534C71.7375 0.523438 71.814 0.576981 71.8446 0.656019L78.3716 17.7665C78.4226 17.8991 78.3232 18.0444 78.1804 18.0444H75.2891C75.2024 18.0444 75.1259 17.9909 75.0979 17.9093L73.8435 14.4749C73.8129 14.3934 73.7364 14.3398 73.6523 14.3398H66.4547C66.368 14.3424 66.2915 14.3934 66.2635 14.4749ZM69.8737 4.62577L67.3649 11.4383C67.3165 11.5709 67.4133 11.7137 67.5561 11.7137H72.5763C72.7191 11.7137 72.8185 11.5709 72.7675 11.4383L70.2587 4.62577C70.1924 4.4473 69.94 4.4473 69.8737 4.62577Z" fill="white"/>
<path d="M80.2324 17.8457V0.73522C80.2324 0.623037 80.3242 0.53125 80.4364 0.53125H87.9909C91.5196 0.53125 93.7479 2.23185 93.7479 4.8605C93.7479 6.41067 92.9142 7.80786 91.466 8.66453C91.3233 8.74867 91.336 8.95519 91.4864 9.02403C93.1794 9.78381 94.1992 11.2498 94.1992 13.0193C94.1992 14.4955 93.6485 15.6964 92.5726 16.6474C91.4966 17.5729 90.0943 18.0497 88.3683 18.0497H80.4389C80.3242 18.0497 80.2324 17.9579 80.2324 17.8457ZM88.0903 3.13441H83.4908C83.3786 3.13441 83.2869 3.2262 83.2869 3.33838V7.53505C83.2869 7.64723 83.3786 7.73902 83.4908 7.73902H87.8915C89.5946 7.73902 90.6935 6.73702 90.6935 5.2353C90.6935 3.96049 89.6915 3.13441 88.0903 3.13441ZM88.1923 10.2912H83.4908C83.3786 10.2912 83.2869 10.383 83.2869 10.4952V15.2425C83.2869 15.3547 83.3786 15.4465 83.4908 15.4465H88.4422C90.0688 15.4465 91.0938 14.3706 91.0938 12.6929C91.0938 11.2677 89.9669 10.2912 88.1923 10.2912Z" fill="white"/>
<path d="M108.334 16.7965C107.207 17.8215 105.683 18.3492 103.778 18.3492C100.922 18.3492 98.2785 17.3243 96.4785 15.6033C96.402 15.5294 96.3944 15.4095 96.4632 15.3254L98.0516 13.3494C98.1281 13.2526 98.2709 13.25 98.3576 13.3367C99.816 14.8359 101.749 15.7206 103.704 15.7206C105.782 15.7206 106.983 14.6956 106.983 13.0919C106.983 11.8911 106.381 11.3148 104.079 10.7131L101.777 10.1114C98.4723 9.23436 97.121 7.70969 97.121 5.20596C97.121 3.78073 97.6717 2.6028 98.7987 1.6518C99.9256 0.70079 101.402 0.226562 103.253 0.226562C105.711 0.226562 108.005 1.14952 109.693 2.69714C109.772 2.77108 109.78 2.89346 109.714 2.9776L108.123 4.93315C108.049 5.02494 107.911 5.03259 107.824 4.951C106.368 3.57676 104.795 2.90366 103.179 2.90366C101.251 2.90366 100.15 3.75523 100.15 5.03004C100.15 6.23091 100.726 6.83262 102.753 7.35784L105.405 8.05899C108.633 8.93606 110.06 10.4123 110.06 12.8395C110.063 14.4432 109.487 15.769 108.334 16.7965Z" fill="white"/>
<path d="M113.269 14.5391C114.371 14.5391 115.222 15.3651 115.222 16.4411C115.222 17.517 114.371 18.3431 113.269 18.3431C112.168 18.3431 111.316 17.517 111.316 16.4411C111.316 15.3651 112.168 14.5391 113.269 14.5391Z" fill="white"/>
</svg>
