<svg width="71" height="72" viewBox="0 0 71 72" fill="none" xmlns="http://www.w3.org/2000/svg">
<rect width="70.868" height="72" rx="5" fill="#349A62"/>
<path d="M35.3124 57.6C35.6903 58.944 38.714 60 40.0369 60C42.5881 60 44.8244 58.304 45.6118 55.936C46.3993 56.48 47.3127 56.8 48.2891 56.8C50.9033 56.8 53.0136 54.656 53.0136 52C53.0136 51.424 52.9191 50.88 52.7301 50.368C55.0924 50.112 56.9507 48.064 56.9507 45.6C56.9507 44.096 56.2263 42.688 55.0924 41.792C56.2578 40.736 56.9507 39.232 56.9507 37.6C56.9507 35.904 56.1948 34.304 54.9034 33.248C55.2184 32.608 55.3759 31.904 55.3759 31.2C55.3759 29.536 54.5255 28.032 53.1711 27.168C53.5806 26.464 53.801 25.632 53.801 24.8C53.801 22.752 52.5097 20.928 50.6513 20.288C50.6513 20.192 50.6513 20.096 50.6513 20C50.6513 17.344 48.5411 15.2 45.9268 15.2C45.2969 15.2 44.6669 15.328 44.1 15.584C43.4071 13.504 41.4858 12 39.2495 12C35.9423 12 34.462 15.04 34.147 16.64C34.147 16.672 34.147 16.704 34.147 16.704C34.147 16.736 34.1155 16.768 34.1155 16.768V54.304C33.9265 56.576 32.0367 58.368 29.7689 58.368C27.5326 58.368 25.6428 56.576 25.4538 54.304C25.4223 53.888 25.0444 53.568 24.6349 53.568C24.3829 53.568 24.1625 53.696 24.005 53.888C23.4065 54.72 22.4616 55.168 21.4852 55.168C19.7529 55.168 18.3355 53.728 18.3355 51.968C18.3355 51.232 18.5875 50.56 19.06 49.952C19.2805 49.696 19.2805 49.312 19.123 49.024C18.934 48.736 18.619 48.576 18.2726 48.672C18.0206 48.736 17.7686 48.768 17.5481 48.768C15.8158 48.768 14.3984 47.328 14.3984 45.568C14.3984 44.256 15.2174 43.04 16.4457 42.592C16.7607 42.496 16.9812 42.24 16.9812 41.92C17.0127 41.6 16.8237 41.312 16.5717 41.152C15.2489 40.448 14.4299 39.104 14.4299 37.6C14.4299 36.192 15.1544 34.912 16.3512 34.176C16.5402 34.048 16.6662 33.888 16.7292 33.664C16.7607 33.44 16.7292 33.216 16.6032 33.024C16.1938 32.48 16.0048 31.84 16.0048 31.2C16.0048 29.856 16.8237 28.672 18.0836 28.192C18.3355 28.096 18.5245 27.904 18.5875 27.648C18.6505 27.392 18.5875 27.104 18.3985 26.912C17.8631 26.336 17.5796 25.568 17.5796 24.8C17.5796 23.264 18.682 21.92 20.1939 21.664C20.3828 21.632 20.5718 21.504 20.6978 21.312C20.8238 21.12 20.8553 20.896 20.8238 20.704C20.7608 20.448 20.7293 20.224 20.7293 20C20.7293 18.24 22.1467 16.8 23.879 16.8C24.5719 16.8 25.2334 17.024 25.7688 17.472C25.9893 17.664 26.3043 17.696 26.5562 17.568C26.8082 17.44 26.9972 17.184 27.0287 16.896C27.1862 15.04 28.7295 13.6 30.5878 13.6C31.4697 13.6 32.1942 13.888 32.7926 14.464" stroke="white" stroke-width="4" stroke-miterlimit="10"/>
<path d="M38.0234 24.9106C38.0234 24.9106 38.592 20.5629 42.5123 21.1101" stroke="white" stroke-width="2" stroke-miterlimit="10"/>
<path d="M38.5898 43.9106C38.5898 43.9106 39.1584 39.5629 43.0787 40.1101" stroke="white" stroke-width="2" stroke-miterlimit="10"/>
<path d="M45.6562 41.3594C45.6562 41.3594 49.9655 41.4202 49.9057 45.4334" stroke="white" stroke-width="2" stroke-miterlimit="10"/>
<path d="M43.1371 33.9981C43.1371 33.9981 38.8577 34.5454 38.3789 30.5625" stroke="white" stroke-width="2" stroke-miterlimit="10"/>
<path d="M48.7953 28.1309C48.7953 28.1309 44.5159 28.6782 44.0371 24.6953" stroke="white" stroke-width="2" stroke-miterlimit="10"/>
<path d="M49.3082 31.2969C49.3082 31.2969 50.0563 35.6142 46.166 36.3135" stroke="white" stroke-width="2" stroke-miterlimit="10"/>
<path d="M40.9609 47.1875C40.9609 47.1875 45.2702 47.2483 45.2104 51.2616" stroke="white" stroke-width="2" stroke-miterlimit="10"/>
<path d="M28.7272 27.8488C29.6693 27.8488 30.433 27.0729 30.433 26.1158C30.433 25.1587 29.6693 24.3828 28.7272 24.3828C27.7852 24.3828 27.0215 25.1587 27.0215 26.1158C27.0215 27.0729 27.7852 27.8488 28.7272 27.8488Z" stroke="white" stroke-width="2" stroke-miterlimit="10"/>
<path d="M28.7272 35.4582C29.6693 35.4582 30.433 34.6823 30.433 33.7252C30.433 32.7681 29.6693 31.9922 28.7272 31.9922C27.7852 31.9922 27.0215 32.7681 27.0215 33.7252C27.0215 34.6823 27.7852 35.4582 28.7272 35.4582Z" stroke="white" stroke-width="2" stroke-miterlimit="10"/>
<path d="M22.7429 35.4582C23.6849 35.4582 24.4486 34.6823 24.4486 33.7252C24.4486 32.7681 23.6849 31.9922 22.7429 31.9922C21.8008 31.9922 21.0371 32.7681 21.0371 33.7252C21.0371 34.6823 21.8008 35.4582 22.7429 35.4582Z" stroke="white" stroke-width="2" stroke-miterlimit="10"/>
<path d="M22.7429 44.5754C23.6849 44.5754 24.4486 43.7995 24.4486 42.8424C24.4486 41.8853 23.6849 41.1094 22.7429 41.1094C21.8008 41.1094 21.0371 41.8853 21.0371 42.8424C21.0371 43.7995 21.8008 44.5754 22.7429 44.5754Z" stroke="white" stroke-width="2" stroke-miterlimit="10"/>
<path d="M28.7272 49.1301C29.6693 49.1301 30.433 48.3542 30.433 47.3971C30.433 46.44 29.6693 45.6641 28.7272 45.6641C27.7852 45.6641 27.0215 46.44 27.0215 47.3971C27.0215 48.3542 27.7852 49.1301 28.7272 49.1301Z" stroke="white" stroke-width="2" stroke-miterlimit="10"/>
<path d="M28.7305 21.1328V24.386" stroke="white" stroke-width="2" stroke-miterlimit="10"/>
<path d="M27.0235 26.1172H22.7441V31.9851" stroke="white" stroke-width="2" stroke-miterlimit="10"/>
<path d="M24.4473 33.7266H27.0508" stroke="white" stroke-width="2" stroke-miterlimit="10"/>
<path d="M28.7305 35.4531V45.6687" stroke="white" stroke-width="2" stroke-miterlimit="10"/>
<path d="M23.877 44.1172L27.0191 47.4008" stroke="white" stroke-width="2" stroke-miterlimit="10"/>
<path d="M28.7305 49.125V52.7126" stroke="white" stroke-width="2" stroke-miterlimit="10"/>
</svg>
