<svg width="28" height="23" viewBox="0 0 28 23" fill="none" xmlns="http://www.w3.org/2000/svg">
<path d="M27.0624 3.3596C26.0672 3.80059 24.9981 4.09856 23.8742 4.23324C25.0338 3.53933 25.9015 2.44719 26.3151 1.16062C25.2256 1.80779 24.0331 2.26332 22.7896 2.50742C21.9533 1.61456 20.8457 1.02275 19.6387 0.823886C18.4316 0.625022 17.1927 0.830224 16.1142 1.40763C15.0358 1.98505 14.1781 2.90236 13.6744 4.01716C13.1707 5.13195 13.0491 6.38186 13.3286 7.57283C11.1209 7.46198 8.96116 6.88817 6.98958 5.88862C5.018 4.88907 3.27862 3.48613 1.88433 1.77085C1.40759 2.59324 1.13346 3.54672 1.13346 4.56219C1.13293 5.47634 1.35805 6.37649 1.78884 7.18277C2.21963 7.98906 2.84278 8.67654 3.603 9.18423C2.72135 9.15617 1.85915 8.91795 1.08817 8.48937V8.56088C1.08808 9.84302 1.53158 11.0857 2.34342 12.0781C3.15525 13.0704 4.28542 13.7514 5.54215 14.0053C4.72428 14.2267 3.8668 14.2593 3.03448 14.1007C3.38905 15.2039 4.07973 16.1686 5.00983 16.8597C5.93992 17.5509 7.06287 17.9339 8.22146 17.9551C6.25469 19.4991 3.82574 20.3366 1.32535 20.3329C0.882431 20.333 0.439888 20.3071 0 20.2554C2.53804 21.8873 5.4925 22.7534 8.50989 22.75C18.7241 22.75 24.308 14.2902 24.308 6.95306C24.308 6.71469 24.302 6.47393 24.2913 6.23556C25.3775 5.4501 26.315 4.47744 27.06 3.36318L27.0624 3.3596Z" fill="white"/>
</svg>
