<svg width="28" height="22" viewBox="0 0 28 22" fill="none" xmlns="http://www.w3.org/2000/svg">
<path d="M27.699 2.65457C26.7165 3.08995 25.6609 3.38413 24.5513 3.5171C25.6962 2.83201 26.5528 1.75375 26.9612 0.483526C25.8855 1.12247 24.7082 1.57222 23.4805 1.81322C22.6549 0.931696 21.5613 0.34741 20.3696 0.151073C19.1779 -0.0452653 17.9547 0.15733 16.89 0.727404C15.8252 1.29748 14.9784 2.20314 14.4811 3.30377C13.9838 4.4044 13.8638 5.63843 14.1397 6.81426C11.96 6.70483 9.82777 6.1383 7.88124 5.15145C5.93471 4.1646 4.21743 2.77949 2.84086 1.08601C2.37017 1.89794 2.09953 2.83931 2.09953 3.84188C2.099 4.74441 2.32126 5.63313 2.74658 6.42916C3.1719 7.2252 3.78713 7.90395 4.53769 8.40519C3.66724 8.37749 2.816 8.14229 2.05481 7.71916V7.78976C2.05472 9.05561 2.49259 10.2825 3.29411 11.2623C4.09563 12.242 5.21144 12.9143 6.4522 13.165C5.64472 13.3835 4.79814 13.4157 3.97639 13.2591C4.32646 14.3483 5.00837 15.3008 5.92664 15.9832C6.84492 16.6655 7.9536 17.0437 9.09746 17.0646C7.15568 18.589 4.7576 19.4158 2.28898 19.4122C1.85169 19.4123 1.41477 19.3868 0.980469 19.3357C3.48626 20.9468 6.40318 21.8019 9.38223 21.7986C19.4667 21.7986 24.9796 13.4462 24.9796 6.20237C24.9796 5.96703 24.9737 5.72933 24.9631 5.49399C26.0355 4.7185 26.9611 3.75821 27.6967 2.6581L27.699 2.65457Z" fill="#A7A7A7"/>
</svg>
